<?xml version="1.0" encoding="UTF-8"?><svg id="Layer_1" xmlns="http://www.w3.org/2000/svg" xmlns:xlink="http://www.w3.org/1999/xlink" viewBox="0 0 585.85 964.61"><defs><style>.cls-1{fill:#294882;}.cls-2{fill:url(#linear-gradient-7);}.cls-3{fill:url(#linear-gradient-5);}.cls-4{fill:url(#linear-gradient-6);}.cls-5{fill:url(#linear-gradient-4);}.cls-6{fill:url(#linear-gradient-3);}.cls-7{fill:url(#linear-gradient-2);}.cls-8{fill:#708db2;}.cls-9{fill:#f8bf3d;}.cls-10{fill:url(#linear-gradient);}.cls-11{fill:#20316a;}.cls-12{fill:#39619a;}.cls-13{fill:#fcde64;}.cls-14{fill:#fef173;}.cls-15{fill:#779ec3;}.cls-16{fill:#ef8d1e;}.cls-17{fill:#a4c5e1;}.cls-18{fill:#fdffcb;}.cls-19{fill:#c9dff0;}.cls-20{fill:#93b1ce;}.cls-21{fill:#4b84be;}.cls-22{fill:#f5a31b;}</style><linearGradient id="linear-gradient" x1="571.73" y1="432.37" x2="189.97" y2="768.34" gradientUnits="userSpaceOnUse"><stop offset=".12" stop-color="#639fd2"/><stop offset=".76" stop-color="#446090"/></linearGradient><linearGradient id="linear-gradient-2" x1="382.25" y1="223.84" x2="210.52" y2="842.19" gradientUnits="userSpaceOnUse"><stop offset="0" stop-color="#f9bc13"/><stop offset=".3" stop-color="#fce03f"/><stop offset=".82" stop-color="#f4a723"/></linearGradient><linearGradient id="linear-gradient-3" x1="327.04" y1="43.4" x2="206.02" y2="544.48" gradientUnits="userSpaceOnUse"><stop offset=".1" stop-color="#4476b1"/><stop offset=".78" stop-color="#b6d8f2"/></linearGradient><linearGradient id="linear-gradient-4" x1="119.95" y1="391.87" x2="324.96" y2="623.45" gradientUnits="userSpaceOnUse"><stop offset="0" stop-color="#9cc2e5"/><stop offset=".41" stop-color="#5799cf"/><stop offset="1" stop-color="#4471a5"/></linearGradient><linearGradient id="linear-gradient-5" x1="92.25" y1="411.59" x2="262.78" y2="497.91" gradientUnits="userSpaceOnUse"><stop offset="0" stop-color="#f5f9fd"/><stop offset="1" stop-color="#baccde"/></linearGradient><linearGradient id="linear-gradient-6" x1="193.08" y1="624.43" x2="191.26" y2="691.59" gradientUnits="userSpaceOnUse"><stop offset="0" stop-color="#598fc3"/><stop offset="1" stop-color="#4070a8"/></linearGradient><linearGradient id="linear-gradient-7" x1="118.89" y1="638.73" x2="164.96" y2="706.86" gradientUnits="userSpaceOnUse"><stop offset="0" stop-color="#90b8db"/><stop offset="1" stop-color="#7b9dc1"/></linearGradient></defs><path class="cls-12" d="M365.3,673.03c-2.9-7.81-15.18-9.33-15.06-17.38,38.38-46.25,75.45-93.67,113.52-140.17,10-12.22,20.46-24.39,31.28-35.91-.03,13.87,4.42,27.27,4.63,41.12l-134.37,152.33Z"/><path class="cls-8" d="M390.79,790.03c1.6,4.83-.49,7.48-4.05,10.43-11.53,9.53-47.64,22.79-62.55,25.48-15.68,2.84-36.03,1.8-52.13,2.32.61,6.72-22.01,5.91-28.96,5.79-2.08-.04-13.65-1.77-15.64-3.48,10.37-10.67,19.6-23.17,28.96-34.75h1.16c41.59,0,93.2,3.17,133.22-5.79Z"/><path class="cls-10" d="M444.07,260.64c49.91,66.39,109.17,150.28,130.9,231.1,63.13,234.86-159.5,438.27-386.91,355.05,4.11-4.71,8.69-9.24,12.74-13.9,4.97,8.1,14.88,3.03,20.85,3.48,8.24.62,17.63,3.31,26.06,3.48,58.01,1.13,126.23-10.75,165.07-57.34-7.17,2.63-14.52,5.85-22.01,7.53-40.02,8.96-91.63,5.79-133.22,5.79,35.29-41.45,71.73-81.97,107.73-122.79l134.37-152.33c-.21-13.85-4.67-27.26-4.63-41.12,0-1.58,3.67-2.58,1.74-4.63-43.78-1.5-87.7-1.35-131.48-1.16,16.05-45.22,32.24-90.45,48.65-135.53,8.62-23.67,16.73-47.61,25.48-71.24.47-1.27,2.68-6.79,4.63-6.37Z"/><path class="cls-15" d="M447.55,758.75c3.3-12.72,20.53-39.99,26.64-55.02,25.87-63.64,39.12-127.97,45.18-196.35,2.09-1.04,3.4,4.58,3.48,5.21,5.71,48.79,6.11,120.37-11.58,163.33-1.09,2.65-3.49-.33-4.63,2.32-3.86,8.91-6.34,25.8-12.16,31.86-1.63,1.7-4.2-.52-6.37,1.74-6.13,6.38-10,19.12-16.22,26.64-4.29,5.2-18.1,16.28-24.33,20.27Z"/><path class="cls-17" d="M447.55,758.75c6.22-3.99,20.03-15.07,24.33-20.27,6.21-7.52,10.09-20.26,16.22-26.64,2.17-2.26,4.74-.04,6.37-1.74,5.82-6.05,8.31-22.95,12.16-31.86,1.14-2.64,3.54.33,4.63-2.32,17.69-42.96,17.3-114.54,11.58-163.33-.07-.64-1.38-6.25-3.48-5.21.29-3.22-.2-6.6,0-9.85,4.59,4.23,8.44,15.34,10.43,22.01,25.79,86.55-3,194.84-82.83,242.69-1.6-1.4.23-2.12.58-3.48Z"/><path class="cls-20" d="M221.66,836.37c1.03-2.72,3.97-3.91,5.79-5.79,1.98,1.7,13.56,3.44,15.64,3.48,6.95.12,29.57.92,28.96-5.79,16.1-.51,36.45.52,52.13-2.32,14.91-2.7,51.03-15.96,62.55-25.48,3.57-2.95,5.66-5.6,4.05-10.43,7.49-1.68,14.84-4.89,22.01-7.53-38.84,46.59-107.06,58.47-165.07,57.34-8.43-.16-17.82-2.86-26.06-3.48Z"/><path class="cls-1" d="M256.41,795.82c-9.36,11.58-18.59,24.08-28.96,34.75-1.83,1.88-4.77,3.07-5.79,5.79-5.98-.45-15.88,4.62-20.85-3.48,10.57-12.16,20.76-24.83,31.28-37.07h24.33Z"/><path class="cls-16" d="M342.14,664.92c-36.41,43.79-72.93,87.72-110.05,130.9-10.52,12.24-20.71,24.91-31.28,37.07-4.05,4.66-8.63,9.19-12.74,13.9-34.26,39.24-70.77,76.63-103.1,117.58-5.04,1.35-.4-3.43,0-4.05,7.33-11.37,14.83-22.59,20.85-34.75,2.44,2.01,5.75-2.58,6.95-4.05,73.91-90.68,145.56-184.2,217.78-276.28l11.58,19.69Z"/><path class="cls-14" d="M105.82,925.56c-6.02,12.16-13.52,23.38-20.85,34.75.47-1.9.64-6.06,1.16-7.53,13.78-39.46,39.4-89.28,56.76-129.16,2-4.59,3.81-9.35,5.79-13.9,1.17-2.7,2.31-5.43,3.48-8.11,3.36-7.74,7.04-15.37,10.43-23.17.16-.37.69-1.25,1.16-2.32,2.52-5.81,5.58-11.5,8.11-17.38,15.3-35.53,31.38-70.93,46.34-106.57l30.12-68.92-1.74-2.9c-16.4,1.94-11.69-6.35-12.16-18.53,14.27-.34,28.59-1.62,42.86-.58l-171.44,364.32Z"/><path class="cls-22" d="M430.17,242.11l-16.22-5.79c21.93-45.84,48.29-90.2,69.5-136.11,1.29-2.79,2.49-3.01,1.16-6.37.35-.5.81-1.82,1.16-2.32,4.11-5.86,8-15.9,15.06-19.11-26.25,55.35-44.84,114.22-70.66,169.71Z"/><path class="cls-12" d="M444.07,260.64c-1.95-.42-4.16,5.1-4.63,6.37-8.75,23.63-16.87,47.57-25.48,71.24l-22.01-6.95c6.7-15.73,14.45-31.17,19.69-47.49,4.42-8.79,8.25-19.85,12.74-27.8,2.11-3.73,5.38-8.78,8.69-11.58,1.87.05,9.41,14.09,11,16.22Z"/><path class="cls-14" d="M391.95,331.3c-20.13,47.26-38.79,95.2-60.24,141.9.96,4.26,29.73.6,33.59.58,43.78-.19,87.7-.34,131.48,1.16,1.93,2.06-1.73,3.05-1.74,4.63-10.82,11.52-21.27,23.69-31.28,35.91l-23.17-11.58c3.29-4.58,7.77-11.01,9.85-16.22h-129.74l-1.16-2.32,9.27-10.43-22.59,9.85c20.28-56.78,45.98-111.36,70.66-166.23l13.32,8.11,1.74-1.74c6.02-13.96,12.87-27.57,19.69-41.12-5.25,16.32-12.99,31.76-19.69,47.49Z"/><path class="cls-21" d="M413.96,338.25c-16.41,45.09-32.6,90.31-48.65,135.53-3.86.02-32.63,3.68-33.59-.58,21.44-46.7,40.11-94.64,60.24-141.9l22.01,6.95Z"/><path class="cls-11" d="M365.3,673.03c-36,40.82-72.44,81.34-107.73,122.79h-25.48c37.12-43.18,73.64-87.11,110.05-130.9,2.61-3.14,5.54-6.17,8.11-9.27-.12,8.05,12.16,9.56,15.06,17.38Z"/><path class="cls-18" d="M327.08,309.29c-60.12,82.53-118.13,166.63-178.39,249.06-9.6,13.13-1.87,9.84-5.21,24.33h-37.65c3.23-4.99,7.04-10.09,10.43-15.06,73.79-108.05,164.81-215.86,245.58-319.72l1.16,6.37c-4.11,8-37.3,44.1-38.23,48.65-1.47,7.16,3.06-2.3,4.63,1.16l-2.32,5.21Z"/><path class="cls-7" d="M413.96,236.31c-13.02,27.22-24.7,54.75-37.07,82.25-24.68,54.87-50.39,109.45-70.66,166.23l22.59-9.85-9.27,10.43,1.16,2.32h129.74c-2.08,5.2-6.55,11.64-9.85,16.22-34.69,48.21-73.37,94.56-110.05,141.33-72.22,92.08-143.87,185.6-217.78,276.28-1.2,1.47-4.51,6.06-6.95,4.05l171.44-364.32c-14.27-1.04-28.59.24-42.86.58-10.96.26-85,4.79-87.46,1.16-1.01-1.49,2.6-2.36,1.74-4.63,60.26-82.42,118.27-166.53,178.39-249.06,52.43-71.77,106.56-142.66,157.54-215.46,1.33,3.37.13,3.58-1.16,6.37-21.21,45.91-47.58,90.27-69.5,136.11Z"/><path class="cls-9" d="M463.77,515.49c-38.07,46.49-75.14,93.92-113.52,140.17-2.57,3.1-5.5,6.13-8.11,9.27l-11.58-19.69c36.68-46.76,75.36-93.12,110.05-141.33l23.17,11.58Z"/><path class="cls-13" d="M234.4,561.82c.48,12.18-4.23,20.48,12.16,18.53l1.74,2.9-30.12,68.92c5.15-12.27,10.16-24.69,15.06-37.07,1.17-2.96,14.45-32.49,12.16-33.59-32.57,2.04-65.28,2.6-97.88,3.48-10.97.3-21.46.35-32.44,1.16-3.43.25-6.99-.18-10.43,0,.14-.22.34-2.2,1.16-3.48h37.65c3.34-14.48-4.38-11.2,5.21-24.33.86,2.27-2.75,3.14-1.74,4.63,2.46,3.63,76.5-.9,87.46-1.16Z"/><path class="cls-6" d="M327.08,71.82l-9.27-5.79c-1.93,1.61.47,7.93,1.16,9.85,18,50.3,36.49,101.28,60.24,148.85-5.91,7.59-11.49,15.6-17.38,23.17-80.77,103.85-171.79,211.67-245.58,319.72.97-146.41,83.11-274.81,123.95-412.39,1.9-6.4,16.96-56.23,14.48-57.92-3.51,3.55-6.99,7.52-9.85,11.58.81-6.13-4.61-2.26-6.95,0L292.9,0c10.56,24.39,21.84,48.3,34.17,71.82Z"/><path class="cls-5" d="M244.83,108.89c-12.17,17.33-22.52,42.57-33.59,61.4C128.42,310.99-14.64,470.39,45.58,644.07c15.91,45.88,56.61,108.85,97.88,135.53,9.2,5.95,22.72,9.23,11-5.79l8.11,4.63c-3.38,7.8-7.06,15.43-10.43,23.17l-9.27.58,5.79,7.53c-1.98,4.55-3.79,9.31-5.79,13.9C44.74,766.14-10.16,651.06,1.56,538.08c12.95-124.74,130.17-262.42,198.09-366.05,8.49-12.96,30.26-55.46,38.23-63.13,2.34-2.26,7.76-6.13,6.95,0Z"/><path class="cls-9" d="M430.17,242.11c-2.1,4.5-5.11,8.84-5.79,13.9-4.49,7.95-8.32,19.01-12.74,27.8-6.82,13.55-13.68,27.17-19.69,41.12l-1.74,1.74-13.32-8.11c12.37-27.49,24.05-55.02,37.07-82.25l16.22,5.79Z"/><path class="cls-21" d="M327.08,71.82c22.32,42.57,47.8,83.41,75.3,122.79-2.7,3.46-5.41,6.97-8.11,10.43-30.56-42.95-55.89-90.32-76.45-139.01l9.27,5.79Z"/><path class="cls-14" d="M485.78,91.51c-.35.5-.81,1.82-1.16,2.32-50.99,72.81-105.11,143.69-157.54,215.46l2.32-5.21c-1.58-3.46-6.1,6-4.63-1.16.93-4.55,34.12-40.65,38.23-48.65l-1.16-6.37c5.89-7.57,11.47-15.58,17.38-23.17,5.07-6.51,9.99-13.2,15.06-19.69,2.7-3.46,5.41-6.97,8.11-10.43,23.58-30.2,46.75-61.02,70.66-90.93,2.94-3.68,8.2-10.8,12.74-12.16Z"/><path class="cls-3" d="M240.2,155.23c-40.84,137.59-122.98,265.98-123.95,412.39-3.39,4.96-7.2,10.07-10.43,15.06-.82,1.27-1.02,3.26-1.16,3.48-7.72,12.14-14.79,24.75-23.17,36.49.57,2.15,31.17-.29,35.91-.58.38-.02.77.02,1.16,0,3.97,33.58,13.57,66.42,25.48,97.88,7.01,18.5,22.07,35.19,19.69,56.18-.46,1.07-1,1.94-1.16,2.32l-8.11-4.63c-4.99-6.39-17.42-13.41-23.75-19.69-36.34-36.03-45.3-60.1-70.08-101.94-37.34-90.04-11.46-180.83,30.12-263.54,33.26-66.14,84.68-153.78,125.11-216.04,6.51-10.03,8.21-20.98,24.33-17.38Z"/><path class="cls-15" d="M394.26,205.04c-5.07,6.49-9.99,13.19-15.06,19.69-23.74-47.58-42.24-98.56-60.24-148.85-.69-1.92-3.08-8.24-1.16-9.85,20.57,48.68,45.89,96.06,76.45,139.01Z"/><path class="cls-17" d="M240.2,155.23c-16.12-3.6-17.81,7.35-24.33,17.38l-4.63-2.32c11.08-18.82,21.42-44.06,33.59-61.4,2.86-4.07,6.33-8.03,9.85-11.58,2.48,1.69-12.58,51.52-14.48,57.92Z"/><path class="cls-19" d="M215.87,172.6c-40.43,62.26-91.85,149.9-125.11,216.04-41.58,82.7-67.46,173.5-30.12,263.54-2.01-3.39-4.05-5.28-5.21-10.43l-9.85,2.32C-14.64,470.39,128.42,310.99,211.24,170.29l4.63,2.32Z"/><path class="cls-15" d="M60.64,652.18c24.79,41.84,33.75,65.91,70.08,101.94,6.33,6.28,18.76,13.3,23.75,19.69,11.72,15.02-1.8,11.74-11,5.79-41.27-26.69-81.97-89.65-97.88-135.53l9.85-2.32c1.16,5.15,3.21,7.04,5.21,10.43Z"/><path class="cls-19" d="M152.16,801.61c-1.16,2.68-2.3,5.41-3.48,8.11l-5.79-7.53,9.27-.58Z"/><path class="cls-4" d="M233.25,615.11c-4.9,12.38-9.91,24.79-15.06,37.07-14.96,35.65-31.04,71.04-46.34,106.57l-18.53-140.17c26.55-1.75,53.33-3.56,79.93-3.48Z"/><path class="cls-2" d="M171.85,758.75c-2.53,5.87-5.59,11.57-8.11,17.38,2.38-21-12.69-37.68-19.69-56.18-11.91-31.46-21.52-64.3-25.48-97.88,11.07-.7,22.49-2.77,33.59-3.48.38-.02.77.03,1.16,0l18.53,140.17Z"/><path class="cls-15" d="M147.52,584.99l4.63,33.59c-11.1.7-22.52,2.77-33.59,3.48-.38.02-.77-.02-1.16,0l-2.32-35.91c10.97-.81,21.47-.86,32.44-1.16Z"/><path class="cls-17" d="M115.09,586.15l2.32,35.91c-4.74.29-35.34,2.73-35.91.58,8.38-11.74,15.45-24.35,23.17-36.49,3.44-.18,7,.25,10.43,0Z"/><path class="cls-12" d="M233.25,615.11c-26.6-.09-53.38,1.73-79.93,3.48-.38.03-.77-.02-1.16,0l-4.63-33.59c32.61-.88,65.32-1.43,97.88-3.48,2.29,1.1-10.99,30.64-12.16,33.59Z"/></svg>